<?xml version="1.0" encoding="iso-8859-1"?>
<!-- Generator: Adobe Illustrator 19.0.0, SVG Export Plug-In . SVG Version: 6.00 Build 0)  -->
<!-- License: CC0. Made by SVG Repo: https://www.svgrepo.com/svg/236823/couple -->
<svg version="1.1" id="Layer_1" xmlns="http://www.w3.org/2000/svg" xmlns:xlink="http://www.w3.org/1999/xlink" x="0px"
     y="0px"
     viewBox="0 0 512 512" style="enable-background:new 0 0 512 512;" xml:space="preserve">
<g fill="#FFA22B">
	<g>
		<path d="M224.477,0c-23.274,0-42.14,18.867-42.14,42.14s18.867,42.141,42.14,42.141c1.364,0,2.711-0.07,4.042-0.197l21.198-23.101
			c4.466-4.867,10.008-8.153,15.926-9.838c0.632-2.902,0.974-5.913,0.974-9.004C266.618,18.867,247.751,0,224.477,0z"/>
	</g>
</g>
    <g fill="#FFA22B">
	<g>
		<path d="M106.391,196.41c-7.013-5.078-12.011-11.951-14.699-19.494c-13.528-3.008-23.397,4.848-25.681,15.121
			c-2.436,10.962,4.475,21.824,15.437,24.261l55.799,12.403c4.095,0.91,8.319,0.534,12.227-1.094L106.391,196.41z"/>
	</g>
</g>
	<g fill="#FFA22B">
	<g>
		<path d="M346.187,304.411l-1.687-14.06l-6.48-10.213l-32.561,3.117l-2.211,4.628l2.563,21.37
			c1.335,11.132,11.439,19.104,22.609,17.767C339.569,325.682,347.524,315.56,346.187,304.411z"/>
	</g>
</g>
	<g fill="#FFA22B">
	<g>
		<path d="M303.141,104.311c-1.697,2.369-0.937,1.411-20.727,22.978l44.134,11.966C324.495,124.368,315.591,111.623,303.141,104.311
			z"/>
	</g>
</g>
	<g fill="#FFA22B">
	<g>
		<path d="M173.336,97.714c0.467,0.127,33.707,9.139,34.174,9.266c3.987-4.345,4.455-4.854,8.502-9.266H173.336z"/>
	</g>
</g>
	<g fill="#FFA22B">
	<g>
		<path d="M258.867,306.817l-28.538-20.664l-60.202-43.593l0.009,245.04c0,13.476,10.924,24.4,24.4,24.4s24.399-10.924,24.399-24.4
			V292.571h10.536V487.6c0,13.476,10.924,24.4,24.4,24.4c13.476,0,24.4-10.924,24.4-24.4V311.872
			C271.196,312.72,264.257,310.72,258.867,306.817z"/>
	</g>
</g>
	<g fill="#FFA22B">
	<g>
		<path d="M438.625,324.898l-20.191-31.821l-74.24-50.898l-20.026,1.918l-10.191,21.329l32.773-3.137l54.698,86.199
			c6.518,10.274,20.128,13.303,30.384,6.793C442.099,348.767,445.14,335.164,438.625,324.898z"/>
	</g>
</g>
	<g fill="#FFA22B">
	<g>
		<path d="M457.209,245.742l-90.205-61.841c-3.619-2.482-7.884-3.802-12.238-3.844l-22.08,46.21l16.013-1.532l83.613,57.322
			c10.028,6.876,23.731,4.318,30.606-5.709C469.793,266.32,467.238,252.617,457.209,245.742z"/>
	</g>
</g>
	<g fill="#FFA22B">
	<g>
		<path d="M333.141,158.339l-63.435-17.2c-12.247,13.347-21.57,23.507-33.125,36.1c-4.793,5.223-11.772,7.286-18.266,6.094
			l-66.209-12.34l64.928-4.842c4.37-0.326,8.451-2.305,11.414-5.533l59.355-64.687c6.432-7.011,5.964-17.911-1.046-24.344
			c-7.01-6.434-17.911-5.965-24.345,1.046l-54.744,59.66l-58.125,4.336l45.075-15.598l0.183-0.199c0,0-31.569-8.559-43.351-11.754
			c-10.73-2.908-22.163,1.524-26.824,11.275c-5.874,12.294-10.006,20.941-16.525,34.586c-4.443,9.297-1.402,21.086,8.081,27.952
			c13.858,10.034,152.476,110.407,152.476,110.407c5.211,3.773,12.434,2.232,14.976-3.087
			c12.345-25.838,44.178-92.459,56.514-118.279C342.703,166.582,339.339,160.019,333.141,158.339z"/>
	</g>
</g>
	<g fill="#FFA22B">
	<g>
		<path d="M105.781,39.96c-21.084-10.074-46.341-1.148-56.415,19.935c-10.074,21.084-1.148,46.341,19.935,56.415
			c21.267,10.161,46.587,0.945,56.495-20.115C135.734,75.148,126.804,50.005,105.781,39.96z"/>
	</g>
</g>
</svg>
